<svg width="17" height="19" fill="none" xmlns="http://www.w3.org/2000/svg"><path d="M14.13 7.077V5.102C14.13 2.289 11.603 0 8.5 0 5.395 0 2.87 2.289 2.87 5.102a.352.352 0 10.704 0C3.574 2.677 5.784.704 8.5.704s4.925 1.973 4.925 4.398v1.935H3.303A2.546 2.546 0 00.76 9.581v6.875A2.546 2.546 0 003.302 19h10.395a2.547 2.547 0 002.543-2.544V9.581a2.546 2.546 0 00-2.11-2.504zM9.906 13.37c0 .777-.631 1.408-1.407 1.408a1.409 1.409 0 01-1.408-1.408v-2.11a1.409 1.409 0 012.815 0v2.11z" fill="#337D5A"/></svg>