<svg width="14" height="14" fill="none" xmlns="http://www.w3.org/2000/svg"><path d="M13.971 10.847c-.04-.119-.292-.295-.756-.526a23.334 23.334 0 00-.536-.299 49.776 49.776 0 01-.632-.348 23.028 23.028 0 01-.532-.308c-.026-.02-.109-.078-.248-.174a2.8 2.8 0 00-.353-.214.651.651 0 00-.284-.07c-.132 0-.298.095-.497.284a4.842 4.842 0 00-.546.617 6.004 6.004 0 01-.527.616c-.186.189-.338.283-.458.283a.677.677 0 01-.223-.05 2.307 2.307 0 01-.205-.084 3.735 3.735 0 01-.238-.139 5.827 5.827 0 00-.189-.114A10.45 10.45 0 015.41 8.59a10.443 10.443 0 01-1.73-2.337 5.762 5.762 0 00-.114-.19 3.588 3.588 0 01-.14-.238 2.154 2.154 0 01-.084-.204.673.673 0 01-.05-.223c0-.12.095-.272.284-.458.189-.185.395-.361.617-.527.222-.165.427-.348.616-.546.189-.2.283-.365.283-.497a.65.65 0 00-.07-.284 2.764 2.764 0 00-.213-.353 10.093 10.093 0 00-.174-.248 19.88 19.88 0 01-.308-.532c-.106-.19-.222-.4-.348-.632-.126-.232-.226-.41-.299-.537C3.45.322 3.273.07 3.154.03a.557.557 0 00-.21-.03 3.24 3.24 0 00-.7.1 3.938 3.938 0 00-.681.208C1.23.448.88.852.509 1.521c-.338.623-.507 1.24-.507 1.85 0 .178.011.352.034.521.024.17.065.36.125.572.06.212.107.37.144.472.036.103.104.287.204.552.099.265.159.428.179.487.232.65.507 1.23.825 1.74.523.849 1.238 1.726 2.142 2.63.905.905 1.782 1.62 2.63 2.143.51.318 1.09.594 1.74.826.06.02.222.079.487.179l.552.204c.103.036.26.084.472.144.213.06.403.101.572.124.17.023.343.035.522.035.61 0 1.227-.17 1.85-.507.669-.371 1.073-.723 1.212-1.054a3.92 3.92 0 00.21-.681 3.3 3.3 0 00.099-.701.553.553 0 00-.03-.21z" fill="#337D5A"/></svg>