<svg width="117" height="40" fill="none" xmlns="http://www.w3.org/2000/svg"><path d="M4.84.45S0 1.314 0 5.674v26.67s.537-5.372 4.84-5.372H96l-9.296-13.734L96 .45H4.84z" fill="#E1843E"/><path d="M12.71 10.64h5.31v1.44h-3.66v1.36h1.72c.767 0 1.363.187 1.79.56.433.367.65.887.65 1.56 0 .694-.207 1.23-.62 1.61-.413.38-.997.57-1.75.57h-3.44v-7.1zm3.25 5.71c.287 0 .503-.07.65-.21.153-.146.23-.346.23-.6a.771.771 0 00-.22-.57c-.147-.153-.367-.23-.66-.23h-1.6v1.61h1.6zm9.078-.05v1.44h-4.99v-7.1h4.9v1.44h-3.26v1.38h2.8v1.33h-2.8v1.51h3.35zm1.04-2.17c0-.426.08-.85.24-1.27a3.467 3.467 0 011.82-1.95c.44-.206.94-.31 1.5-.31.666 0 1.243.144 1.73.43.493.287.86.66 1.1 1.12l-1.26.88a1.363 1.363 0 00-.31-.46 1.433 1.433 0 00-.4-.3 1.458 1.458 0 00-.45-.16 2.117 2.117 0 00-.45-.05 1.694 1.694 0 00-1.4.68 2.04 2.04 0 00-.34.68c-.074.254-.11.51-.11.77 0 .28.043.55.13.81.086.26.21.49.37.69.166.2.363.36.59.48.233.114.493.17.78.17.146 0 .296-.016.45-.05a1.744 1.744 0 00.85-.47c.12-.126.216-.28.29-.46l1.34.79c-.107.26-.267.494-.48.7-.207.207-.447.38-.72.52-.274.14-.564.247-.87.32-.307.074-.607.11-.9.11-.514 0-.987-.103-1.42-.31a3.73 3.73 0 01-1.11-.84 3.953 3.953 0 01-.72-1.18 3.757 3.757 0 01-.25-1.34zm7.924-3.49h5.97v7.1h-1.64v-5.66h-2.68v5.66h-1.65v-7.1zm10.493 2.46c-.087.9-.197 1.654-.33 2.26-.127.6-.304 1.084-.53 1.45a1.93 1.93 0 01-.87.77c-.354.154-.794.23-1.32.23l-.05-1.44c.24-.026.44-.083.6-.17.166-.093.306-.266.42-.52.113-.26.206-.626.28-1.1a27 27 0 00.23-1.9l.18-2.04h4.61v7.1h-1.64v-5.66h-1.48l-.1 1.02zm7.138-2.46h1.48l2.59 7.1h-1.68l-.55-1.59h-2.21l-.54 1.59h-1.68l2.59-7.1zm1.57 4.38l-.83-2.51-.85 2.51h1.68zm8.506-2.94h-2.16v5.66h-1.64v-5.66h-2.17v-1.44h5.97v1.44zm7.541-1.44v7.1h-1.64v-2.91h-2.83v2.91h-1.64v-7.1h1.64v2.75h2.83v-2.75h1.64zm5.11 7.16a3.302 3.302 0 01-1.44-.31 3.587 3.587 0 01-1.11-.81 3.856 3.856 0 01-.72-1.16 3.704 3.704 0 01-.25-1.34c0-.466.086-.916.26-1.35a3.562 3.562 0 011.87-1.93c.433-.2.906-.3 1.42-.3.526 0 1.006.104 1.44.31.433.207.803.48 1.11.82.306.34.543.727.71 1.16.166.434.25.874.25 1.32 0 .467-.09.917-.27 1.35a3.63 3.63 0 01-.73 1.15c-.314.327-.687.59-1.12.79-.434.2-.907.3-1.42.3zm-1.85-3.6c0 .274.04.54.12.8.08.254.196.48.35.68a1.725 1.725 0 001.39.66c.313 0 .586-.063.82-.19.233-.126.426-.29.58-.49a2.16 2.16 0 00.34-.69 2.672 2.672 0 000-1.58 1.96 1.96 0 00-.36-.68c-.16-.2-.357-.356-.59-.47-.227-.12-.49-.18-.79-.18-.314 0-.587.064-.82.19-.227.12-.42.28-.58.48-.154.2-.27.43-.35.69-.074.254-.11.514-.11.78z" fill="#fff"/></svg>