<svg width="16" height="19" fill="none" xmlns="http://www.w3.org/2000/svg"><path d="M14.926 5.814c-.387-.298-.665-.766-.617-1.225.173-1.62-.759-3.002-2.265-3.255-.268-.044-.534-.167-.775-.304-.454-.26-.928-.355-1.417-.21-.265.079-.428.044-.638-.159-1.199-1.156-3.077-.743-3.665.826-.168.451-.418.714-.809.885a.686.686 0 00-.245.153c-.195.222-.38.167-.617.06-1.526-.692-3.17.447-3.233 2.21a1.667 1.667 0 01-.234.741c-.454.778-.534 1.558-.23 2.366-.219.583-.028 1.31.513 1.733.592.463 1.276.221 1.8-.227.148-.015.299-.047.453-.097.308-.1.586-.221.845-.087.042.032.084.061.127.088l.034.031.004-.007c.086.05.174.086.265.115.504 1.896 1.587 3.557 3.074 4.734a9.417 9.417 0 01-.92 3.411c-.604.393-1.339.109-1.97-.077-.558-.165-1.102-.226-1.659-.036a.255.255 0 00-.174.237l-.003.008-.127.58c-.04.18.083.305.216.329.02.006.043.01.067.01h10.31a.225.225 0 00.195-.103.274.274 0 00.1-.21v-.402a.268.268 0 00-.18-.255.227.227 0 00-.156-.057H9.879c-.155-.19-.312-.383-.475-.573-.452-.53-.652-1.12-.449-1.832.071-.248.122-.505.151-.762.087-.762.168-1.527.25-2.303a4.218 4.218 0 002.726-1.387c.305 0 .578-.097.806-.26l.091-.03c.497.426 1.264.47 1.842.243.537-.211 1-.783 1.017-1.41a1.637 1.637 0 00-.006-.176c.418-1.145.036-2.59-.906-3.316zm-9.094 3.45l.016-.006c.108-.044.297.006.394.087.137.113.267.237.393.363.003.01.003.02.006.032l.58 2.066c.047.347.076.692.092 1.035-1.001-.877-1.549-2.179-1.481-3.576zm3.756 1.992c.045-.116.09-.231.138-.346h.047c0-.04 0-.08.002-.12.13-.308.27-.61.429-.898a4 4 0 00.636.498 5.05 5.05 0 01-1.252.866z" fill="#337D5A"/></svg>